{
  "accessors": [
    {
      "bufferView": 2,
      "componentType": 5126,
      "count": 3261,
      "max": [
        1.5762584209442139,
        1.0633560419082642,
        0.9103789329528809
      ],
      "min": [
        -1.807894229888916,
        -1.005857229232788,
        -0.9103789329528809
      ],
      "type": "VEC3"
    },
    {
      "bufferView": 2,
      "byteOffset": 39132,
      "componentType": 5126,
      "count": 3261,
      "max": [
        0.9998584985733032,
        0.9999960660934448,
        1.0
      ],
      "min": [
        -0.999991774559021,
        -1.0,
        -1.0
      ],
      "type": "VEC3"
    },
    {
      "bufferView": 1,
      "componentType": 5126,
      "count": 3261,
      "max": [
        0.8750001192092896,
        1.0
      ],
      "min": [
        0.125,
        -1.1920928955078125e-07
      ],
      "type": "VEC2"
    },
    {
      "bufferView": 0,
      "componentType": 5125,
      "count": 16224,
      "type": "SCALAR"
    }
  ],
  "asset": {
    "extras": {
      "author": "Aditya 58 (https://sketchfab.com/vijay2622)",
      "license": "CC-BY-4.0 (http://creativecommons.org/licenses/by/4.0/)",
      "source": "https://sketchfab.com/3d-models/piggybank-415dfc2282d24eb1b11f79fe3fff97b4",
      "title": "Piggybank"
    },
    "generator": "Sketchfab-16.12.0",
    "version": "2.0"
  },
  "bufferViews": [
    {
      "buffer": 0,
      "byteLength": 64896,
      "name": "floatBufferViews",
      "target": 34963
    },
    {
      "buffer": 0,
      "byteLength": 26088,
      "byteOffset": 64896,
      "byteStride": 8,
      "name": "floatBufferViews",
      "target": 34962
    },
    {
      "buffer": 0,
      "byteLength": 78264,
      "byteOffset": 90984,
      "byteStride": 12,
      "name": "floatBufferViews",
      "target": 34962
    }
  ],
  "buffers": [
    {
      "byteLength": 169248,
      "uri": "scene.bin"
    }
  ],
  "materials": [
    {
      "doubleSided": true,
      "name": "Material.009",
      "pbrMetallicRoughness": {
        "baseColorFactor": [
          0.8,
          0.273265,
          0.319982,
          1.0
        ],
        "metallicFactor": 0.1,
        "roughnessFactor": 0.3
      }
    }
  ],
  "meshes": [
    {
      "name": "Object_0",
      "primitives": [
        {
          "attributes": {
            "NORMAL": 1,
            "POSITION": 0,
            "TEXCOORD_0": 2
          },
          "indices": 3,
          "material": 0,
          "mode": 4
        }
      ]
    }
  ],
  "nodes": [
    {
      "children": [
        1
      ],
      "matrix": [
        1.0,
        0.0,
        0.0,
        0.0,
        0.0,
        2.220446049250313e-16,
        -1.0,
        0.0,
        0.0,
        1.0,
        2.220446049250313e-16,
        0.0,
        0.0,
        0.0,
        0.0,
        1.0
      ],
      "name": "Sketchfab_model"
    },
    {
      "children": [
        2
      ],
      "name": "root"
    },
    {
      "children": [
        3
      ],
      "matrix": [
        1.0,
        0.0,
        0.0,
        0.0,
        0.0,
        2.220446049250313e-16,
        1.0,
        0.0,
        0.0,
        -1.0,
        2.220446049250313e-16,
        0.0,
        0.0,
        0.0,
        0.0,
        1.0
      ],
      "name": "GLTF_SceneRootNode"
    },
    {
      "children": [
        4
      ],
      "matrix": [
        0.17616721987724304,
        0.0,
        0.0,
        0.0,
        0.0,
        0.17616721987724304,
        0.0,
        0.0,
        0.0,
        0.0,
        0.17616721987724304,
        0.0,
        -2.490859031677246,
        -0.0816645622253418,
        -4.4559526443481445,
        1.0
      ],
      "name": "Cube_0"
    },
    {
      "mesh": 0,
      "name": "Object_4"
    }
  ],
  "scene": 0,
  "scenes": [
    {
      "name": "Sketchfab_Scene",
      "nodes": [
        0
      ]
    }
  ]
}
